<svg xmlns="http://www.w3.org/2000/svg" viewBox="0 0 400 600" role="img" aria-label="Inception poster">
  <defs>
    <linearGradient id="bg" x1="0" y1="0" x2="1" y2="1">
      <stop offset="0" stop-color="#1a1f2b"/><stop offset="0.5" stop-color="#3a4553"/><stop offset="1" stop-color="#5a6b7a"/>
    </linearGradient>
    <radialGradient id="glow" cx="0.72" cy="0.18" r="0.85">
      <stop offset="0" stop-color="#ffffff" stop-opacity="0.16"/><stop offset="1" stop-color="#ffffff" stop-opacity="0"/>
    </radialGradient>
    <radialGradient id="vignette" cx="0.5" cy="0.5" r="0.75">
      <stop offset="0.55" stop-color="#000000" stop-opacity="0"/><stop offset="1" stop-color="#000000" stop-opacity="0.35"/>
    </radialGradient>
    <linearGradient id="fade" x1="0" y1="0" x2="0" y2="1">
      <stop offset="0.45" stop-color="#000000" stop-opacity="0"/><stop offset="1" stop-color="#000000" stop-opacity="0.85"/>
    </linearGradient>
    <filter id="grain">
      <feTurbulence type="fractalNoise" baseFrequency="0.8" numOctaves="2"/>
      <feColorMatrix type="matrix" values="0 0 0 0 0  0 0 0 0 0  0 0 0 0 0  0 0 0 0.05 0"/>
      <feComposite operator="over" in2="SourceGraphic"/>
    </filter>
  </defs>
  <g filter="url(#grain)">
    <rect width="400" height="600" fill="url(#bg)"/>
    <rect width="400" height="600" fill="url(#glow)"/>
    <g opacity="0.16" stroke="#ffffff" fill="none">
  <circle cx="248" cy="93" r="173" fill="none" stroke="#ffffff" stroke-width="1.5"/>
  <circle cx="75" cy="399" r="67" fill="none" stroke="#ffffff" stroke-width="1.5"/>
  <circle cx="309" cy="218" r="165" fill="none" stroke="#ffffff" stroke-width="1.5"/>
  <line x1="61" y1="392" x2="301" y2="0" stroke="#ffffff" stroke-width="1"/>
    </g>
    <text x="368" y="52" font-family="Georgia, 'Times New Roman', serif" font-size="30" font-weight="700" fill="#E50914" text-anchor="end">N</text>
    <rect width="400" height="600" fill="url(#vignette)"/>
    <rect width="400" height="600" fill="url(#fade)"/>
  <circle cx="86" cy="69" r="1.74" fill="#ffffff" opacity="0.25"/>
  <circle cx="329" cy="285" r="1.99" fill="#ffffff" opacity="0.25"/>
  <circle cx="5" cy="277" r="1.70" fill="#ffffff" opacity="0.25"/>
  <circle cx="57" cy="407" r="1.85" fill="#ffffff" opacity="0.25"/>
  <circle cx="10" cy="141" r="1.06" fill="#ffffff" opacity="0.25"/>
  <circle cx="227" cy="89" r="1.93" fill="#ffffff" opacity="0.25"/>
  <circle cx="397" cy="349" r="1.01" fill="#ffffff" opacity="0.25"/>
  <circle cx="102" cy="165" r="1.47" fill="#ffffff" opacity="0.25"/>
  <circle cx="192" cy="58" r="1.32" fill="#ffffff" opacity="0.25"/>
  <circle cx="127" cy="556" r="1.86" fill="#ffffff" opacity="0.25"/>
  <circle cx="255" cy="557" r="1.20" fill="#ffffff" opacity="0.25"/>
  <circle cx="79" cy="595" r="1.89" fill="#ffffff" opacity="0.25"/>
  <circle cx="275" cy="578" r="1.12" fill="#ffffff" opacity="0.25"/>
  <circle cx="222" cy="264" r="1.25" fill="#ffffff" opacity="0.25"/>
  <circle cx="164" cy="402" r="1.68" fill="#ffffff" opacity="0.25"/>
  <circle cx="252" cy="197" r="1.48" fill="#ffffff" opacity="0.25"/>
  <circle cx="355" cy="47" r="1.36" fill="#ffffff" opacity="0.25"/>
  <circle cx="170" cy="311" r="1.77" fill="#ffffff" opacity="0.25"/>
  <circle cx="171" cy="442" r="1.51" fill="#ffffff" opacity="0.25"/>
  <circle cx="324" cy="525" r="1.28" fill="#ffffff" opacity="0.25"/>
  <circle cx="283" cy="118" r="1.64" fill="#ffffff" opacity="0.25"/>
  <circle cx="346" cy="64" r="1.32" fill="#ffffff" opacity="0.25"/>
  <circle cx="3" cy="405" r="1.51" fill="#ffffff" opacity="0.25"/>
  <circle cx="158" cy="322" r="1.83" fill="#ffffff" opacity="0.25"/>
  <circle cx="50" cy="498" r="1.89" fill="#ffffff" opacity="0.25"/>
    <rect x="26" y="510" width="36" height="4" fill="#E50914"/>
  <text x="26" y="502" font-family="Arial, Helvetica, sans-serif" font-size="13" font-weight="600" letter-spacing="2.5" fill="rgba(255,255,255,0.75)">SCI-FI</text>
  <text x="29" y="559" font-family="Georgia, 'Times New Roman', serif" font-size="34" font-weight="700" fill="rgba(0,0,0,0.55)">Inception</text>
  <text x="26" y="556" font-family="Georgia, 'Times New Roman', serif" font-size="34" font-weight="700" fill="#ffffff">Inception</text>
  </g>
</svg>
