<svg xmlns="http://www.w3.org/2000/svg" viewBox="0 0 400 600" role="img" aria-label="Static Bloom poster">
  <defs>
    <linearGradient id="bg" x1="0" y1="0" x2="1" y2="1">
      <stop offset="0" stop-color="#3a1c71"/><stop offset="0.5" stop-color="#542c70"/><stop offset="1" stop-color="#6d3b6e"/>
    </linearGradient>
    <radialGradient id="glow" cx="0.72" cy="0.18" r="0.85">
      <stop offset="0" stop-color="#ffffff" stop-opacity="0.16"/><stop offset="1" stop-color="#ffffff" stop-opacity="0"/>
    </radialGradient>
    <radialGradient id="vignette" cx="0.5" cy="0.5" r="0.75">
      <stop offset="0.55" stop-color="#000000" stop-opacity="0"/><stop offset="1" stop-color="#000000" stop-opacity="0.35"/>
    </radialGradient>
    <linearGradient id="fade" x1="0" y1="0" x2="0" y2="1">
      <stop offset="0.45" stop-color="#000000" stop-opacity="0"/><stop offset="1" stop-color="#000000" stop-opacity="0.85"/>
    </linearGradient>
    <filter id="grain">
      <feTurbulence type="fractalNoise" baseFrequency="0.8" numOctaves="2"/>
      <feColorMatrix type="matrix" values="0 0 0 0 0  0 0 0 0 0  0 0 0 0 0  0 0 0 0.05 0"/>
      <feComposite operator="over" in2="SourceGraphic"/>
    </filter>
  </defs>
  <g filter="url(#grain)">
    <rect width="400" height="600" fill="url(#bg)"/>
    <rect width="400" height="600" fill="url(#glow)"/>
    <g opacity="0.16" stroke="#ffffff" fill="none">
  <circle cx="327" cy="380" r="70" fill="none" stroke="#ffffff" stroke-width="1.5"/>
  <circle cx="311" cy="514" r="154" fill="none" stroke="#ffffff" stroke-width="1.5"/>
  <circle cx="113" cy="476" r="122" fill="none" stroke="#ffffff" stroke-width="1.5"/>
  <line x1="54" y1="533" x2="294" y2="53" stroke="#ffffff" stroke-width="1"/>
    </g>
    <text x="368" y="52" font-family="Georgia, 'Times New Roman', serif" font-size="30" font-weight="700" fill="#E50914" text-anchor="end">N</text>
    <rect width="400" height="600" fill="url(#vignette)"/>
    <rect width="400" height="600" fill="url(#fade)"/>
  <circle cx="309" cy="547" r="1.98" fill="#ffffff" opacity="0.25"/>
  <circle cx="230" cy="192" r="1.34" fill="#ffffff" opacity="0.25"/>
  <circle cx="76" cy="528" r="1.48" fill="#ffffff" opacity="0.25"/>
  <circle cx="120" cy="199" r="1.73" fill="#ffffff" opacity="0.25"/>
  <circle cx="108" cy="404" r="1.38" fill="#ffffff" opacity="0.25"/>
  <circle cx="206" cy="89" r="1.97" fill="#ffffff" opacity="0.25"/>
  <circle cx="225" cy="427" r="1.55" fill="#ffffff" opacity="0.25"/>
  <circle cx="258" cy="213" r="1.35" fill="#ffffff" opacity="0.25"/>
  <circle cx="172" cy="496" r="1.16" fill="#ffffff" opacity="0.25"/>
  <circle cx="135" cy="357" r="1.07" fill="#ffffff" opacity="0.25"/>
  <circle cx="102" cy="492" r="1.32" fill="#ffffff" opacity="0.25"/>
  <circle cx="295" cy="134" r="1.66" fill="#ffffff" opacity="0.25"/>
  <circle cx="74" cy="314" r="1.14" fill="#ffffff" opacity="0.25"/>
  <circle cx="249" cy="28" r="1.44" fill="#ffffff" opacity="0.25"/>
  <circle cx="167" cy="14" r="1.86" fill="#ffffff" opacity="0.25"/>
  <circle cx="222" cy="10" r="1.03" fill="#ffffff" opacity="0.25"/>
  <circle cx="84" cy="180" r="1.18" fill="#ffffff" opacity="0.25"/>
  <circle cx="165" cy="74" r="1.49" fill="#ffffff" opacity="0.25"/>
  <circle cx="379" cy="499" r="1.01" fill="#ffffff" opacity="0.25"/>
  <circle cx="71" cy="216" r="1.80" fill="#ffffff" opacity="0.25"/>
  <circle cx="142" cy="160" r="1.52" fill="#ffffff" opacity="0.25"/>
  <circle cx="250" cy="5" r="1.48" fill="#ffffff" opacity="0.25"/>
  <circle cx="253" cy="371" r="1.74" fill="#ffffff" opacity="0.25"/>
  <circle cx="79" cy="463" r="1.83" fill="#ffffff" opacity="0.25"/>
  <circle cx="127" cy="109" r="1.89" fill="#ffffff" opacity="0.25"/>
    <rect x="26" y="510" width="36" height="4" fill="#E50914"/>
  <text x="26" y="502" font-family="Arial, Helvetica, sans-serif" font-size="13" font-weight="600" letter-spacing="2.5" fill="rgba(255,255,255,0.75)">COMEDY</text>
  <text x="29" y="559" font-family="Georgia, 'Times New Roman', serif" font-size="34" font-weight="700" fill="rgba(0,0,0,0.55)">Static Bloom</text>
  <text x="26" y="556" font-family="Georgia, 'Times New Roman', serif" font-size="34" font-weight="700" fill="#ffffff">Static Bloom</text>
  </g>
</svg>
