<svg xmlns="http://www.w3.org/2000/svg" viewBox="0 0 400 600" role="img" aria-label="Wicked poster">
  <defs>
    <linearGradient id="bg" x1="0" y1="0" x2="1" y2="1">
      <stop offset="0" stop-color="#1a3b2b"/><stop offset="0.5" stop-color="#775366"/><stop offset="1" stop-color="#d46aa0"/>
    </linearGradient>
    <radialGradient id="glow" cx="0.72" cy="0.18" r="0.85">
      <stop offset="0" stop-color="#ffffff" stop-opacity="0.16"/><stop offset="1" stop-color="#ffffff" stop-opacity="0"/>
    </radialGradient>
    <radialGradient id="vignette" cx="0.5" cy="0.5" r="0.75">
      <stop offset="0.55" stop-color="#000000" stop-opacity="0"/><stop offset="1" stop-color="#000000" stop-opacity="0.35"/>
    </radialGradient>
    <linearGradient id="fade" x1="0" y1="0" x2="0" y2="1">
      <stop offset="0.45" stop-color="#000000" stop-opacity="0"/><stop offset="1" stop-color="#000000" stop-opacity="0.85"/>
    </linearGradient>
    <filter id="grain">
      <feTurbulence type="fractalNoise" baseFrequency="0.8" numOctaves="2"/>
      <feColorMatrix type="matrix" values="0 0 0 0 0  0 0 0 0 0  0 0 0 0 0  0 0 0 0.05 0"/>
      <feComposite operator="over" in2="SourceGraphic"/>
    </filter>
  </defs>
  <g filter="url(#grain)">
    <rect width="400" height="600" fill="url(#bg)"/>
    <rect width="400" height="600" fill="url(#glow)"/>
    <g opacity="0.16" stroke="#ffffff" fill="none">
  <circle cx="232" cy="393" r="56" fill="none" stroke="#ffffff" stroke-width="1.5"/>
  <circle cx="20" cy="519" r="122" fill="none" stroke="#ffffff" stroke-width="1.5"/>
  <circle cx="175" cy="48" r="146" fill="none" stroke="#ffffff" stroke-width="1.5"/>
  <line x1="73" y1="23" x2="313" y2="0" stroke="#ffffff" stroke-width="1"/>
    </g>
    <text x="368" y="52" font-family="Georgia, 'Times New Roman', serif" font-size="30" font-weight="700" fill="#E50914" text-anchor="end">N</text>
    <rect width="400" height="600" fill="url(#vignette)"/>
    <rect width="400" height="600" fill="url(#fade)"/>
  <circle cx="149" cy="148" r="1.13" fill="#ffffff" opacity="0.25"/>
  <circle cx="15" cy="521" r="1.09" fill="#ffffff" opacity="0.25"/>
  <circle cx="325" cy="69" r="1.30" fill="#ffffff" opacity="0.25"/>
  <circle cx="190" cy="416" r="1.29" fill="#ffffff" opacity="0.25"/>
  <circle cx="285" cy="33" r="1.07" fill="#ffffff" opacity="0.25"/>
  <circle cx="270" cy="560" r="1.11" fill="#ffffff" opacity="0.25"/>
  <circle cx="344" cy="9" r="1.54" fill="#ffffff" opacity="0.25"/>
  <circle cx="181" cy="2" r="1.90" fill="#ffffff" opacity="0.25"/>
  <circle cx="237" cy="186" r="1.71" fill="#ffffff" opacity="0.25"/>
  <circle cx="283" cy="49" r="1.31" fill="#ffffff" opacity="0.25"/>
  <circle cx="156" cy="148" r="1.59" fill="#ffffff" opacity="0.25"/>
  <circle cx="320" cy="426" r="1.42" fill="#ffffff" opacity="0.25"/>
  <circle cx="11" cy="557" r="1.24" fill="#ffffff" opacity="0.25"/>
  <circle cx="375" cy="390" r="1.80" fill="#ffffff" opacity="0.25"/>
  <circle cx="252" cy="20" r="1.56" fill="#ffffff" opacity="0.25"/>
  <circle cx="87" cy="477" r="1.49" fill="#ffffff" opacity="0.25"/>
  <circle cx="141" cy="169" r="1.98" fill="#ffffff" opacity="0.25"/>
  <circle cx="345" cy="505" r="1.85" fill="#ffffff" opacity="0.25"/>
  <circle cx="282" cy="480" r="1.08" fill="#ffffff" opacity="0.25"/>
  <circle cx="183" cy="480" r="1.15" fill="#ffffff" opacity="0.25"/>
  <circle cx="226" cy="179" r="1.75" fill="#ffffff" opacity="0.25"/>
  <circle cx="296" cy="7" r="1.99" fill="#ffffff" opacity="0.25"/>
  <circle cx="117" cy="380" r="1.32" fill="#ffffff" opacity="0.25"/>
  <circle cx="354" cy="45" r="1.82" fill="#ffffff" opacity="0.25"/>
  <circle cx="122" cy="264" r="1.72" fill="#ffffff" opacity="0.25"/>
    <rect x="26" y="510" width="36" height="4" fill="#E50914"/>
  <text x="26" y="502" font-family="Arial, Helvetica, sans-serif" font-size="13" font-weight="600" letter-spacing="2.5" fill="rgba(255,255,255,0.75)">FANTASY</text>
  <text x="29" y="559" font-family="Georgia, 'Times New Roman', serif" font-size="34" font-weight="700" fill="rgba(0,0,0,0.55)">Wicked</text>
  <text x="26" y="556" font-family="Georgia, 'Times New Roman', serif" font-size="34" font-weight="700" fill="#ffffff">Wicked</text>
  </g>
</svg>
