<svg xmlns="http://www.w3.org/2000/svg" viewBox="0 0 400 600" role="img" aria-label="Winter's Ledger poster">
  <defs>
    <linearGradient id="bg" x1="0" y1="0" x2="1" y2="1">
      <stop offset="0" stop-color="#10343a"/><stop offset="0.5" stop-color="#0d282e"/><stop offset="1" stop-color="#0a1c22"/>
    </linearGradient>
    <radialGradient id="glow" cx="0.72" cy="0.18" r="0.85">
      <stop offset="0" stop-color="#ffffff" stop-opacity="0.16"/><stop offset="1" stop-color="#ffffff" stop-opacity="0"/>
    </radialGradient>
    <radialGradient id="vignette" cx="0.5" cy="0.5" r="0.75">
      <stop offset="0.55" stop-color="#000000" stop-opacity="0"/><stop offset="1" stop-color="#000000" stop-opacity="0.35"/>
    </radialGradient>
    <linearGradient id="fade" x1="0" y1="0" x2="0" y2="1">
      <stop offset="0.45" stop-color="#000000" stop-opacity="0"/><stop offset="1" stop-color="#000000" stop-opacity="0.85"/>
    </linearGradient>
    <filter id="grain">
      <feTurbulence type="fractalNoise" baseFrequency="0.8" numOctaves="2"/>
      <feColorMatrix type="matrix" values="0 0 0 0 0  0 0 0 0 0  0 0 0 0 0  0 0 0 0.05 0"/>
      <feComposite operator="over" in2="SourceGraphic"/>
    </filter>
  </defs>
  <g filter="url(#grain)">
    <rect width="400" height="600" fill="url(#bg)"/>
    <rect width="400" height="600" fill="url(#glow)"/>
    <g opacity="0.16" stroke="#ffffff" fill="none">
  <circle cx="228" cy="41" r="158" fill="none" stroke="#ffffff" stroke-width="1.5"/>
  <circle cx="46" cy="114" r="152" fill="none" stroke="#ffffff" stroke-width="1.5"/>
  <circle cx="198" cy="208" r="140" fill="none" stroke="#ffffff" stroke-width="1.5"/>
  <line x1="178" y1="448" x2="418" y2="0" stroke="#ffffff" stroke-width="1"/>
    </g>
    <text x="368" y="52" font-family="Georgia, 'Times New Roman', serif" font-size="30" font-weight="700" fill="#E50914" text-anchor="end">N</text>
    <rect width="400" height="600" fill="url(#vignette)"/>
    <rect width="400" height="600" fill="url(#fade)"/>
  <circle cx="130" cy="147" r="1.57" fill="#ffffff" opacity="0.25"/>
  <circle cx="167" cy="148" r="1.68" fill="#ffffff" opacity="0.25"/>
  <circle cx="92" cy="388" r="1.25" fill="#ffffff" opacity="0.25"/>
  <circle cx="294" cy="247" r="1.07" fill="#ffffff" opacity="0.25"/>
  <circle cx="128" cy="176" r="1.13" fill="#ffffff" opacity="0.25"/>
  <circle cx="292" cy="523" r="1.15" fill="#ffffff" opacity="0.25"/>
  <circle cx="354" cy="270" r="1.91" fill="#ffffff" opacity="0.25"/>
  <circle cx="245" cy="467" r="1.32" fill="#ffffff" opacity="0.25"/>
  <circle cx="320" cy="273" r="1.55" fill="#ffffff" opacity="0.25"/>
  <circle cx="109" cy="301" r="1.38" fill="#ffffff" opacity="0.25"/>
  <circle cx="218" cy="79" r="1.57" fill="#ffffff" opacity="0.25"/>
  <circle cx="172" cy="221" r="1.24" fill="#ffffff" opacity="0.25"/>
  <circle cx="63" cy="213" r="1.73" fill="#ffffff" opacity="0.25"/>
  <circle cx="294" cy="95" r="1.75" fill="#ffffff" opacity="0.25"/>
  <circle cx="211" cy="407" r="1.31" fill="#ffffff" opacity="0.25"/>
  <circle cx="364" cy="533" r="1.78" fill="#ffffff" opacity="0.25"/>
  <circle cx="19" cy="248" r="1.19" fill="#ffffff" opacity="0.25"/>
  <circle cx="117" cy="509" r="1.11" fill="#ffffff" opacity="0.25"/>
  <circle cx="28" cy="122" r="1.52" fill="#ffffff" opacity="0.25"/>
  <circle cx="166" cy="401" r="1.69" fill="#ffffff" opacity="0.25"/>
  <circle cx="323" cy="515" r="1.36" fill="#ffffff" opacity="0.25"/>
  <circle cx="284" cy="320" r="1.24" fill="#ffffff" opacity="0.25"/>
  <circle cx="84" cy="131" r="1.30" fill="#ffffff" opacity="0.25"/>
  <circle cx="52" cy="117" r="1.42" fill="#ffffff" opacity="0.25"/>
  <circle cx="222" cy="209" r="1.32" fill="#ffffff" opacity="0.25"/>
    <rect x="26" y="470" width="36" height="4" fill="#E50914"/>
  <text x="26" y="462" font-family="Arial, Helvetica, sans-serif" font-size="13" font-weight="600" letter-spacing="2.5" fill="rgba(255,255,255,0.75)">CRIME</text>
  <text x="29" y="519" font-family="Georgia, 'Times New Roman', serif" font-size="34" font-weight="700" fill="rgba(0,0,0,0.55)">Winter's</text>
  <text x="26" y="516" font-family="Georgia, 'Times New Roman', serif" font-size="34" font-weight="700" fill="#ffffff">Winter's</text>
  <text x="29" y="559" font-family="Georgia, 'Times New Roman', serif" font-size="34" font-weight="700" fill="rgba(0,0,0,0.55)">Ledger</text>
  <text x="26" y="556" font-family="Georgia, 'Times New Roman', serif" font-size="34" font-weight="700" fill="#ffffff">Ledger</text>
  </g>
</svg>
