<svg xmlns="http://www.w3.org/2000/svg" viewBox="0 0 800 450" role="img" aria-label="Black Mirror backdrop">
  <defs>
    <linearGradient id="bg" x1="0" y1="0" x2="1" y2="1">
      <stop offset="0" stop-color="#101418"/><stop offset="0.5" stop-color="#1f2831"/><stop offset="1" stop-color="#2e3c4a"/>
    </linearGradient>
    <radialGradient id="glow" cx="0.72" cy="0.18" r="0.85">
      <stop offset="0" stop-color="#ffffff" stop-opacity="0.16"/><stop offset="1" stop-color="#ffffff" stop-opacity="0"/>
    </radialGradient>
    <radialGradient id="vignette" cx="0.5" cy="0.5" r="0.75">
      <stop offset="0.55" stop-color="#000000" stop-opacity="0"/><stop offset="1" stop-color="#000000" stop-opacity="0.35"/>
    </radialGradient>
    <linearGradient id="fade" x1="0" y1="0" x2="0" y2="1">
      <stop offset="0.45" stop-color="#000000" stop-opacity="0"/><stop offset="1" stop-color="#000000" stop-opacity="0.85"/>
    </linearGradient>
    <filter id="grain">
      <feTurbulence type="fractalNoise" baseFrequency="0.8" numOctaves="2"/>
      <feColorMatrix type="matrix" values="0 0 0 0 0  0 0 0 0 0  0 0 0 0 0  0 0 0 0.05 0"/>
      <feComposite operator="over" in2="SourceGraphic"/>
    </filter>
  </defs>
  <g filter="url(#grain)">
    <rect width="800" height="450" fill="url(#bg)"/>
    <rect width="800" height="450" fill="url(#glow)"/>
    <g opacity="0.16" stroke="#ffffff" fill="none">
  <circle cx="726" cy="376" r="112" fill="none" stroke="#ffffff" stroke-width="1.5"/>
  <circle cx="183" cy="404" r="127" fill="none" stroke="#ffffff" stroke-width="1.5"/>
  <circle cx="275" cy="311" r="53" fill="none" stroke="#ffffff" stroke-width="1.5"/>
  <line x1="261" y1="87" x2="741" y2="0" stroke="#ffffff" stroke-width="1"/>
    </g>
    <text x="752" y="52" font-family="Georgia, 'Times New Roman', serif" font-size="34" font-weight="700" fill="#E50914" text-anchor="end">N</text>
    <rect width="800" height="450" fill="url(#vignette)"/>
    <rect width="800" height="450" fill="url(#fade)"/>
  <circle cx="134" cy="280" r="1.31" fill="#ffffff" opacity="0.25"/>
  <circle cx="205" cy="2" r="1.97" fill="#ffffff" opacity="0.25"/>
  <circle cx="567" cy="138" r="1.79" fill="#ffffff" opacity="0.25"/>
  <circle cx="272" cy="176" r="1.43" fill="#ffffff" opacity="0.25"/>
  <circle cx="766" cy="287" r="1.53" fill="#ffffff" opacity="0.25"/>
  <circle cx="441" cy="4" r="1.87" fill="#ffffff" opacity="0.25"/>
  <circle cx="699" cy="66" r="1.47" fill="#ffffff" opacity="0.25"/>
  <circle cx="237" cy="355" r="1.12" fill="#ffffff" opacity="0.25"/>
  <circle cx="334" cy="141" r="1.86" fill="#ffffff" opacity="0.25"/>
  <circle cx="529" cy="435" r="1.22" fill="#ffffff" opacity="0.25"/>
  <circle cx="135" cy="153" r="1.27" fill="#ffffff" opacity="0.25"/>
  <circle cx="35" cy="386" r="1.30" fill="#ffffff" opacity="0.25"/>
  <circle cx="541" cy="232" r="2.00" fill="#ffffff" opacity="0.25"/>
  <circle cx="607" cy="216" r="1.11" fill="#ffffff" opacity="0.25"/>
  <circle cx="661" cy="4" r="1.39" fill="#ffffff" opacity="0.25"/>
  <circle cx="391" cy="103" r="1.55" fill="#ffffff" opacity="0.25"/>
  <circle cx="653" cy="199" r="1.05" fill="#ffffff" opacity="0.25"/>
  <circle cx="631" cy="339" r="1.13" fill="#ffffff" opacity="0.25"/>
  <circle cx="93" cy="153" r="1.65" fill="#ffffff" opacity="0.25"/>
  <circle cx="236" cy="192" r="1.96" fill="#ffffff" opacity="0.25"/>
  <circle cx="629" cy="149" r="1.60" fill="#ffffff" opacity="0.25"/>
  <circle cx="198" cy="434" r="1.61" fill="#ffffff" opacity="0.25"/>
  <circle cx="127" cy="80" r="1.71" fill="#ffffff" opacity="0.25"/>
  <circle cx="155" cy="215" r="1.99" fill="#ffffff" opacity="0.25"/>
  <circle cx="495" cy="444" r="1.62" fill="#ffffff" opacity="0.25"/>
    <rect x="48" y="316" width="44" height="5" fill="#E50914"/>
  <text x="48" y="306" font-family="Arial, Helvetica, sans-serif" font-size="13" font-weight="600" letter-spacing="2.5" fill="rgba(255,255,255,0.75)">SCI-FI</text>
  <text x="51" y="391" font-family="Georgia, 'Times New Roman', serif" font-size="54" font-weight="700" fill="rgba(0,0,0,0.55)">Black Mirror</text>
  <text x="48" y="388" font-family="Georgia, 'Times New Roman', serif" font-size="54" font-weight="700" fill="#ffffff">Black Mirror</text>
  </g>
</svg>
