<svg xmlns="http://www.w3.org/2000/svg" viewBox="0 0 800 450" role="img" aria-label="The Lion King backdrop">
  <defs>
    <linearGradient id="bg" x1="0" y1="0" x2="1" y2="1">
      <stop offset="0" stop-color="#3b1f0b"/><stop offset="0.5" stop-color="#885d1b"/><stop offset="1" stop-color="#d49a2b"/>
    </linearGradient>
    <radialGradient id="glow" cx="0.72" cy="0.18" r="0.85">
      <stop offset="0" stop-color="#ffffff" stop-opacity="0.16"/><stop offset="1" stop-color="#ffffff" stop-opacity="0"/>
    </radialGradient>
    <radialGradient id="vignette" cx="0.5" cy="0.5" r="0.75">
      <stop offset="0.55" stop-color="#000000" stop-opacity="0"/><stop offset="1" stop-color="#000000" stop-opacity="0.35"/>
    </radialGradient>
    <linearGradient id="fade" x1="0" y1="0" x2="0" y2="1">
      <stop offset="0.45" stop-color="#000000" stop-opacity="0"/><stop offset="1" stop-color="#000000" stop-opacity="0.85"/>
    </linearGradient>
    <filter id="grain">
      <feTurbulence type="fractalNoise" baseFrequency="0.8" numOctaves="2"/>
      <feColorMatrix type="matrix" values="0 0 0 0 0  0 0 0 0 0  0 0 0 0 0  0 0 0 0.05 0"/>
      <feComposite operator="over" in2="SourceGraphic"/>
    </filter>
  </defs>
  <g filter="url(#grain)">
    <rect width="800" height="450" fill="url(#bg)"/>
    <rect width="800" height="450" fill="url(#glow)"/>
    <g opacity="0.16" stroke="#ffffff" fill="none">
  <circle cx="224" cy="118" r="85" fill="none" stroke="#ffffff" stroke-width="1.5"/>
  <circle cx="684" cy="30" r="60" fill="none" stroke="#ffffff" stroke-width="1.5"/>
  <circle cx="48" cy="200" r="182" fill="none" stroke="#ffffff" stroke-width="1.5"/>
  <line x1="271" y1="257" x2="751" y2="0" stroke="#ffffff" stroke-width="1"/>
    </g>
    <text x="752" y="52" font-family="Georgia, 'Times New Roman', serif" font-size="34" font-weight="700" fill="#E50914" text-anchor="end">N</text>
    <rect width="800" height="450" fill="url(#vignette)"/>
    <rect width="800" height="450" fill="url(#fade)"/>
  <circle cx="538" cy="149" r="1.00" fill="#ffffff" opacity="0.25"/>
  <circle cx="453" cy="240" r="1.42" fill="#ffffff" opacity="0.25"/>
  <circle cx="681" cy="369" r="1.91" fill="#ffffff" opacity="0.25"/>
  <circle cx="267" cy="70" r="1.43" fill="#ffffff" opacity="0.25"/>
  <circle cx="424" cy="392" r="1.20" fill="#ffffff" opacity="0.25"/>
  <circle cx="418" cy="443" r="1.75" fill="#ffffff" opacity="0.25"/>
  <circle cx="297" cy="362" r="1.57" fill="#ffffff" opacity="0.25"/>
  <circle cx="165" cy="369" r="1.49" fill="#ffffff" opacity="0.25"/>
  <circle cx="741" cy="101" r="1.84" fill="#ffffff" opacity="0.25"/>
  <circle cx="4" cy="134" r="1.02" fill="#ffffff" opacity="0.25"/>
  <circle cx="381" cy="296" r="1.32" fill="#ffffff" opacity="0.25"/>
  <circle cx="24" cy="227" r="1.32" fill="#ffffff" opacity="0.25"/>
  <circle cx="365" cy="292" r="1.81" fill="#ffffff" opacity="0.25"/>
  <circle cx="247" cy="51" r="1.81" fill="#ffffff" opacity="0.25"/>
  <circle cx="196" cy="3" r="1.80" fill="#ffffff" opacity="0.25"/>
  <circle cx="200" cy="438" r="1.54" fill="#ffffff" opacity="0.25"/>
  <circle cx="29" cy="95" r="1.97" fill="#ffffff" opacity="0.25"/>
  <circle cx="546" cy="275" r="1.73" fill="#ffffff" opacity="0.25"/>
  <circle cx="433" cy="423" r="1.62" fill="#ffffff" opacity="0.25"/>
  <circle cx="615" cy="427" r="1.31" fill="#ffffff" opacity="0.25"/>
  <circle cx="557" cy="50" r="1.39" fill="#ffffff" opacity="0.25"/>
  <circle cx="606" cy="13" r="1.44" fill="#ffffff" opacity="0.25"/>
  <circle cx="516" cy="120" r="1.20" fill="#ffffff" opacity="0.25"/>
  <circle cx="520" cy="428" r="1.37" fill="#ffffff" opacity="0.25"/>
  <circle cx="477" cy="298" r="1.25" fill="#ffffff" opacity="0.25"/>
    <rect x="48" y="316" width="44" height="5" fill="#E50914"/>
  <text x="48" y="306" font-family="Arial, Helvetica, sans-serif" font-size="13" font-weight="600" letter-spacing="2.5" fill="rgba(255,255,255,0.75)">ANIMATION</text>
  <text x="51" y="391" font-family="Georgia, 'Times New Roman', serif" font-size="54" font-weight="700" fill="rgba(0,0,0,0.55)">The Lion King</text>
  <text x="48" y="388" font-family="Georgia, 'Times New Roman', serif" font-size="54" font-weight="700" fill="#ffffff">The Lion King</text>
  </g>
</svg>
