<svg xmlns="http://www.w3.org/2000/svg" viewBox="0 0 800 450" role="img" aria-label="The Grand Budapest Hotel backdrop">
  <defs>
    <linearGradient id="bg" x1="0" y1="0" x2="1" y2="1">
      <stop offset="0" stop-color="#7a2b3b"/><stop offset="0.5" stop-color="#ad5b6e"/><stop offset="1" stop-color="#e08aa0"/>
    </linearGradient>
    <radialGradient id="glow" cx="0.72" cy="0.18" r="0.85">
      <stop offset="0" stop-color="#ffffff" stop-opacity="0.16"/><stop offset="1" stop-color="#ffffff" stop-opacity="0"/>
    </radialGradient>
    <radialGradient id="vignette" cx="0.5" cy="0.5" r="0.75">
      <stop offset="0.55" stop-color="#000000" stop-opacity="0"/><stop offset="1" stop-color="#000000" stop-opacity="0.35"/>
    </radialGradient>
    <linearGradient id="fade" x1="0" y1="0" x2="0" y2="1">
      <stop offset="0.45" stop-color="#000000" stop-opacity="0"/><stop offset="1" stop-color="#000000" stop-opacity="0.85"/>
    </linearGradient>
    <filter id="grain">
      <feTurbulence type="fractalNoise" baseFrequency="0.8" numOctaves="2"/>
      <feColorMatrix type="matrix" values="0 0 0 0 0  0 0 0 0 0  0 0 0 0 0  0 0 0 0.05 0"/>
      <feComposite operator="over" in2="SourceGraphic"/>
    </filter>
  </defs>
  <g filter="url(#grain)">
    <rect width="800" height="450" fill="url(#bg)"/>
    <rect width="800" height="450" fill="url(#glow)"/>
    <g opacity="0.16" stroke="#ffffff" fill="none">
  <circle cx="34" cy="215" r="47" fill="none" stroke="#ffffff" stroke-width="1.5"/>
  <circle cx="277" cy="294" r="75" fill="none" stroke="#ffffff" stroke-width="1.5"/>
  <circle cx="226" cy="418" r="69" fill="none" stroke="#ffffff" stroke-width="1.5"/>
  <line x1="342" y1="240" x2="822" y2="0" stroke="#ffffff" stroke-width="1"/>
    </g>
    <text x="752" y="52" font-family="Georgia, 'Times New Roman', serif" font-size="34" font-weight="700" fill="#E50914" text-anchor="end">N</text>
    <rect width="800" height="450" fill="url(#vignette)"/>
    <rect width="800" height="450" fill="url(#fade)"/>
  <circle cx="381" cy="196" r="1.30" fill="#ffffff" opacity="0.25"/>
  <circle cx="318" cy="66" r="1.04" fill="#ffffff" opacity="0.25"/>
  <circle cx="313" cy="237" r="1.99" fill="#ffffff" opacity="0.25"/>
  <circle cx="754" cy="431" r="1.82" fill="#ffffff" opacity="0.25"/>
  <circle cx="792" cy="77" r="1.68" fill="#ffffff" opacity="0.25"/>
  <circle cx="95" cy="406" r="1.88" fill="#ffffff" opacity="0.25"/>
  <circle cx="496" cy="346" r="1.28" fill="#ffffff" opacity="0.25"/>
  <circle cx="38" cy="80" r="1.07" fill="#ffffff" opacity="0.25"/>
  <circle cx="613" cy="179" r="1.39" fill="#ffffff" opacity="0.25"/>
  <circle cx="596" cy="50" r="1.66" fill="#ffffff" opacity="0.25"/>
  <circle cx="399" cy="40" r="1.51" fill="#ffffff" opacity="0.25"/>
  <circle cx="387" cy="310" r="1.84" fill="#ffffff" opacity="0.25"/>
  <circle cx="34" cy="123" r="1.95" fill="#ffffff" opacity="0.25"/>
  <circle cx="506" cy="69" r="1.92" fill="#ffffff" opacity="0.25"/>
  <circle cx="387" cy="340" r="1.12" fill="#ffffff" opacity="0.25"/>
  <circle cx="658" cy="296" r="1.56" fill="#ffffff" opacity="0.25"/>
  <circle cx="544" cy="343" r="1.98" fill="#ffffff" opacity="0.25"/>
  <circle cx="701" cy="419" r="1.63" fill="#ffffff" opacity="0.25"/>
  <circle cx="644" cy="377" r="1.17" fill="#ffffff" opacity="0.25"/>
  <circle cx="440" cy="302" r="1.27" fill="#ffffff" opacity="0.25"/>
  <circle cx="106" cy="26" r="1.69" fill="#ffffff" opacity="0.25"/>
  <circle cx="648" cy="103" r="1.66" fill="#ffffff" opacity="0.25"/>
  <circle cx="165" cy="420" r="1.39" fill="#ffffff" opacity="0.25"/>
  <circle cx="631" cy="408" r="1.93" fill="#ffffff" opacity="0.25"/>
  <circle cx="51" cy="82" r="1.21" fill="#ffffff" opacity="0.25"/>
    <rect x="48" y="316" width="44" height="5" fill="#E50914"/>
  <text x="48" y="306" font-family="Arial, Helvetica, sans-serif" font-size="13" font-weight="600" letter-spacing="2.5" fill="rgba(255,255,255,0.75)">COMEDY</text>
  <text x="51" y="391" font-family="Georgia, 'Times New Roman', serif" font-size="54" font-weight="700" fill="rgba(0,0,0,0.55)">The Grand Budapest Hotel</text>
  <text x="48" y="388" font-family="Georgia, 'Times New Roman', serif" font-size="54" font-weight="700" fill="#ffffff">The Grand Budapest Hotel</text>
  </g>
</svg>
